<?xml version="1.0" encoding="utf-8"?><svg width="109" height="40" viewBox="0 0 109 40" xmlns="http://www.w3.org/2000/svg" xmlns:xlink="http://www.w3.org/1999/xlink"><svg viewBox="4907.917 161 28.361 16.311" width="28.36" height="16.31" id="check" xmlns="http://www.w3.org/2000/svg"><defs><style>.acls-1{fill:#30b900}</style></defs><g id="adouble-tick-indicator" transform="translate(4907.917 34.775)"><g id="adone-all" transform="translate(0 126.225)"><path id="aPath_450" data-name="Path 450" class="acls-1" d="M21.423 127.929l-1.7-1.7-7.668 7.668 1.7 1.7zm5.112-1.7l-12.781 12.9-5.112-5.112-1.7 1.7 6.816 6.816 14.606-14.606zM0 135.719l6.816 6.816 1.7-1.7-6.816-6.82z" transform="translate(0 -126.225)"/></g></g></svg><svg id="hamburger" viewBox="0 0 40 40" width="40" height="40" x="29" xmlns="http://www.w3.org/2000/svg"><style>.bst0{fill:#fff}</style><title>hamburger</title><g id="bLayer_2_1_"><g id="bСлой_2"><path class="bst0" d="M40 40H0V0h40v40zM.9 39.1H39V.9H.9v38.2z"/><path class="bst0" d="M7.5 11.1h24.9v.9H7.5zm0 8.4h24.9v.9H7.5zm0 8.5h24.9v.9H7.5z"/></g></g></svg><svg id="hamburger-close" viewBox="0 0 40 40" width="40" height="40" x="69" xmlns="http://www.w3.org/2000/svg"><style>.cst0{fill:#fff}</style><title>hamburger</title><g id="cLayer_2_1_"><g id="cСлой_2"><path class="cst0" d="M40 40H0V0h40v40zM.9 39.1H39V.9H.9v38.2z"/><path transform="rotate(-45.001 20 20)" class="cst0" d="M7.2 19.5h25.5v1H7.2z"/><path transform="rotate(-45.001 20 20)" class="cst0" d="M19.5 7.2h1v25.5h-1z"/></g></g></svg></svg>